<svg viewBox="0 0 80 80" fill="none" xmlns="http://www.w3.org/2000/svg">
<mask id="path-1-inside-1" fill="white">
<path fill-rule="evenodd" clip-rule="evenodd" d="M54.0375 36.1997C53.4853 36.1907 53.0303 36.631 53.0213 37.1833L52.9407 42.1176C46.0109 44.8434 41.0553 51.5404 40.9261 59.4482C40.7551 69.9116 49.0986 78.5324 59.5619 78.7034C70.0252 78.8744 78.6461 70.5309 78.8171 60.0675C78.9463 52.1598 74.2123 45.3044 67.3753 42.3536L67.456 37.4192C67.465 36.867 67.0247 36.412 66.4725 36.403L54.0375 36.1997Z"/>
</mask>
<path d="M53.0213 37.1833L50.0217 37.1342L53.0213 37.1833ZM54.0375 36.1997L53.9885 39.1993L54.0375 36.1997ZM52.9407 42.1176L54.0388 44.9094L55.9074 44.1744L55.9403 42.1667L52.9407 42.1176ZM67.3753 42.3536L64.3757 42.3046L64.3429 44.3123L66.1865 45.108L67.3753 42.3536ZM67.456 37.4192L70.4556 37.4682L67.456 37.4192ZM66.4725 36.403L66.5215 33.4034L66.4725 36.403ZM56.0209 37.2323C56.0029 38.3367 55.0929 39.2174 53.9885 39.1993L54.0865 33.2001C51.8777 33.164 50.0578 34.9254 50.0217 37.1342L56.0209 37.2323ZM55.9403 42.1667L56.0209 37.2323L50.0217 37.1342L49.9411 42.0686L55.9403 42.1667ZM43.9257 59.4973C44.0344 52.8462 48.2005 47.2059 54.0388 44.9094L51.8425 39.3258C43.8214 42.4809 38.0763 50.2347 37.9265 59.3992L43.9257 59.4973ZM59.6109 75.7038C50.8043 75.5599 43.7817 68.3039 43.9257 59.4973L37.9265 59.3992C37.7284 71.5192 47.3929 81.5049 59.5129 81.703L59.6109 75.7038ZM75.8175 60.0185C75.6735 68.8252 68.4176 75.8477 59.6109 75.7038L59.5129 81.703C71.6328 81.9011 81.6186 72.2365 81.8167 60.1166L75.8175 60.0185ZM66.1865 45.108C71.9467 47.594 75.9262 53.3675 75.8175 60.0185L81.8167 60.1166C81.9665 50.9521 76.4778 43.0147 68.5641 39.5992L66.1865 45.108ZM64.4564 37.3702L64.3757 42.3046L70.3749 42.4026L70.4556 37.4682L64.4564 37.3702ZM66.4234 39.4026C65.319 39.3845 64.4383 38.4746 64.4564 37.3702L70.4556 37.4682C70.4917 35.2594 68.7303 33.4395 66.5215 33.4034L66.4234 39.4026ZM53.9885 39.1993L66.4234 39.4026L66.5215 33.4034L54.0865 33.2001L53.9885 39.1993Z" fill="#BE925C" mask="url(#path-1-inside-1)"/>
<circle cx="59.8716" cy="59.7576" r="10.2297" transform="rotate(0.936379 59.8716 59.7576)" stroke="#BE925C" stroke-width="3"/>
<path d="M59.6946 70.5835C59.6946 70.5835 61.4827 71.6101 61.4474 73.7706C61.4121 75.931 59.5914 76.8987 59.5914 76.8987" stroke="#BE925C" stroke-width="2"/>
<circle cx="60.1296" cy="43.97" r="1.35343" transform="rotate(0.936379 60.1296 43.97)" fill="#BE925C"/>
<mask id="path-6-inside-2" fill="white">
<path fill-rule="evenodd" clip-rule="evenodd" d="M27.0428 12.3332C26.527 12.1358 25.9489 12.394 25.7515 12.9098L23.9882 17.5187C16.5441 17.71 9.59678 22.3082 6.77069 29.6949C3.03133 39.4687 7.92321 50.4233 17.697 54.1627C27.4708 57.9021 38.4254 53.0102 42.1648 43.2364C44.9908 35.8497 42.887 27.7886 37.4716 22.6774L39.235 18.0685C39.4323 17.5527 39.1741 16.9745 38.6583 16.7772L27.0428 12.3332Z"/>
</mask>
<path d="M23.9882 17.5187L24.0652 20.5177L26.0726 20.4661L26.7901 18.5907L23.9882 17.5187ZM37.4716 22.6774L34.6697 21.6054L33.9522 23.4808L35.4125 24.8591L37.4716 22.6774ZM28.5534 13.9818C28.1587 15.0135 27.0025 15.5298 25.9708 15.1351L28.1148 9.53125C26.0515 8.74186 23.739 9.77455 22.9496 11.8378L28.5534 13.9818ZM26.7901 18.5907L28.5534 13.9818L22.9496 11.8378L21.1863 16.4467L26.7901 18.5907ZM9.57263 30.7669C11.9496 24.5541 17.7936 20.6789 24.0652 20.5177L23.9111 14.5197C15.2946 14.7411 7.24398 20.0623 3.96876 28.6229L9.57263 30.7669ZM18.769 51.3608C10.5427 48.2134 6.42531 38.9933 9.57263 30.7669L3.96876 28.6229C-0.362651 39.9442 5.30375 52.6332 16.625 56.9646L18.769 51.3608ZM39.3628 42.1644C36.2155 50.3907 26.9953 54.5081 18.769 51.3608L16.625 56.9646C27.9463 61.296 40.6353 55.6296 44.9667 44.3084L39.3628 42.1644ZM35.4125 24.8591C39.9749 29.1653 41.7398 35.9516 39.3628 42.1644L44.9667 44.3084C48.2419 35.7478 45.799 26.4119 39.5308 20.4957L35.4125 24.8591ZM36.433 16.9965L34.6697 21.6054L40.2736 23.7494L42.0369 19.1405L36.433 16.9965ZM37.5863 19.5791C36.5547 19.1844 36.0383 18.0281 36.433 16.9965L42.0369 19.1405C42.8263 17.0772 41.7936 14.7646 39.7303 13.9752L37.5863 19.5791ZM25.9708 15.1351L37.5863 19.5791L39.7303 13.9752L28.1148 9.53125L25.9708 15.1351Z" fill="#BE925C" mask="url(#path-6-inside-2)"/>
<circle cx="24.4678" cy="36.4657" r="10.2297" transform="rotate(20.9364 24.4678 36.4657)" stroke="#BE925C" stroke-width="3"/>
<path d="M20.5988 46.5782C20.5988 46.5782 21.9279 48.1545 21.1558 50.1726C20.3837 52.1907 18.3419 52.4773 18.3419 52.4773" stroke="#BE925C" stroke-width="2"/>
<circle cx="30.11" cy="21.7182" r="1.35343" transform="rotate(20.9364 30.11 21.7182)" fill="#BE925C"/>
<rect x="34.5977" y="5.03731" width="10.632" height="5.2183" rx="2.60915" transform="rotate(-14.8682 34.5977 5.03731)" stroke="#BE925C" stroke-width="2"/>
<rect x="46.4617" y="2.0982" width="10.632" height="5.2183" rx="2.60915" transform="rotate(-5.37604 46.4617 2.0982)" stroke="#BE925C" stroke-width="2"/>
<rect x="59.2313" y="2.15503" width="10.632" height="5.2183" rx="2.60915" transform="rotate(22.4052 59.2313 2.15503)" stroke="#BE925C" stroke-width="2"/>
<rect x="70.726" y="9.53509" width="10.632" height="5.2183" rx="2.60915" transform="rotate(80.7063 70.726 9.53509)" stroke="#BE925C" stroke-width="2"/>
<rect x="70.6437" y="23.218" width="10.632" height="5.2183" rx="2.60915" transform="rotate(119.001 70.6437 23.218)" stroke="#BE925C" stroke-width="2"/>
<path d="M32.3568 16.7695L35.385 8.07352" stroke="#BE925C" stroke-width="2"/>
<path d="M60.3596 38.3386L63.5096 30.9814" stroke="#BE925C" stroke-width="2"/>
</svg>
