<svg viewBox="0 0 127 58" fill="none" xmlns="http://www.w3.org/2000/svg">
<path d="M27.5506 41.1489L28.9822 41.5967L27.5506 41.1489ZM5.70485 41.7394L7.03341 42.4357L5.70485 41.7394ZM14.9229 27.3883L13.7718 26.4266L14.9229 27.3883ZM45.7281 35.8395C46.1565 35.1304 45.9289 34.2083 45.2199 33.7799C44.5108 33.3516 43.5887 33.5791 43.1603 34.2882L45.7281 35.8395ZM26.4362 9.38032L27.4969 10.441L26.4362 9.38032ZM11.3804 2V0.5C10.7737 0.5 10.2267 0.865463 9.99456 1.42597C9.76239 1.98649 9.89072 2.63166 10.3197 3.06066L11.3804 2ZM30.8088 31.9866L29.4097 31.4456L30.8088 31.9866ZM117.492 7.63683L116.66 6.38875L117.492 7.63683ZM115.461 8.99083L116.293 10.2389L115.461 8.99083ZM19.9346 2.87868L20.9953 1.81802L19.9346 2.87868ZM62.437 8.33957L63.6198 7.41712L62.437 8.33957ZM60.6961 6.10724L59.5133 7.02968L60.6961 6.10724ZM29.9857 5.83081L28.9251 4.77015L29.9857 5.83081ZM61.2598 23.8811L60.1262 22.8987L61.2598 23.8811ZM20.8696 21.8106L19.9176 20.6514L20.8696 21.8106ZM23.508 19.4303V14.6435H20.508V19.4303H23.508ZM32.1071 6.45213H58.3304V3.45213H32.1071V6.45213ZM59.5133 7.02968L61.2542 9.26201L63.6198 7.41712L61.8789 5.18479L59.5133 7.02968ZM64.8027 10.9947H113.797V7.99468H64.8027V10.9947ZM116.293 10.2389L118.324 8.8849L116.66 6.38875L114.629 7.74276L116.293 10.2389ZM119.156 8.63298H121.694V5.63298H119.156V8.63298ZM123.194 10.133V13.7606H126.194V10.133H123.194ZM121.694 15.2606H85.774V18.2606H121.694V15.2606ZM85.774 15.2606H63.3378V18.2606H85.774V15.2606ZM84.274 16.7606V19.8457H87.274V16.7606H84.274ZM82.774 21.3457H63.527V24.3457H82.774V21.3457ZM60.1262 22.8987L55.4259 28.3228L57.6931 30.2874L62.3934 24.8634L60.1262 22.8987ZM29.4097 31.4456C28.5958 33.5503 27.1704 37.3392 26.119 40.7012L28.9822 41.5967C30.0031 38.3323 31.3993 34.6182 32.2078 32.5277L29.4097 31.4456ZM26.119 40.7012C24.8898 44.6315 24.4885 50.133 24.3517 53.4326L27.3491 53.5568C27.4859 50.2569 27.883 45.1117 28.9822 41.5967L26.119 40.7012ZM22.7699 55H4.65372V58H22.7699V55ZM3.26872 53.296C4.08595 50.0774 5.42293 45.5083 7.03341 42.4357L4.37629 41.043C2.5875 44.4557 1.18101 49.3281 0.360985 52.5577L3.26872 53.296ZM7.03341 42.4357C10.5142 35.795 11.3515 34.0024 16.074 28.35L13.7718 26.4266C8.84078 32.3286 7.88538 34.3482 4.37629 41.043L7.03341 42.4357ZM16.074 28.35C17.573 26.5559 20.2553 24.2563 21.8217 22.9697L19.9176 20.6514C18.3668 21.9252 15.4751 24.3879 13.7718 26.4266L16.074 28.35ZM33.2261 30.3404C31.7518 30.6169 31.7519 30.6175 31.7521 30.6182C31.7521 30.6185 31.7523 30.6192 31.7524 30.6197C31.7526 30.6208 31.7528 30.6221 31.7531 30.6235C31.7536 30.6263 31.7543 30.6296 31.755 30.6336C31.7566 30.6415 31.7586 30.6516 31.761 30.664C31.766 30.6887 31.773 30.7223 31.7821 30.7641C31.8002 30.8478 31.8268 30.9647 31.8632 31.1101C31.9358 31.4006 32.0477 31.807 32.209 32.2908C32.5299 33.2534 33.055 34.55 33.873 35.8588C35.5167 38.4887 38.44 41.2872 43.2634 41.2872V38.2872C39.8208 38.2872 37.7254 36.3623 36.417 34.2688C35.759 33.216 35.3246 32.1508 35.0551 31.3421C34.9212 30.9404 34.8301 30.6087 34.7736 30.3825C34.7454 30.2696 34.7259 30.1836 34.714 30.1289C34.7081 30.1016 34.7041 30.0821 34.7019 30.0711C34.7008 30.0656 34.7001 30.0622 34.6999 30.061C34.6997 30.0604 34.6997 30.0603 34.6998 30.0608C34.6999 30.0611 34.7 30.0615 34.7001 30.062C34.7001 30.0622 34.7002 30.0628 34.7002 30.0629C34.7003 30.0634 34.7004 30.064 33.2261 30.3404ZM54.2923 28.8404H53.891V31.8404H54.2923V28.8404ZM43.2634 41.2872C48.0667 41.2872 51.127 38.5114 52.913 35.9136C53.8057 34.6152 54.4082 33.327 54.7876 32.3686C54.9782 31.8871 55.1148 31.4827 55.2051 31.1938C55.2503 31.0491 55.2841 30.9329 55.3072 30.8498C55.3188 30.8083 55.3278 30.775 55.3343 30.7506C55.3375 30.7383 55.3401 30.7283 55.3421 30.7206C55.3431 30.7167 55.3439 30.7134 55.3446 30.7107C55.345 30.7093 55.3453 30.7081 55.3455 30.707C55.3457 30.7065 55.3458 30.7058 55.3459 30.7055C55.3461 30.7049 55.3462 30.7042 53.891 30.3404C52.4358 29.9766 52.4359 29.9761 52.4361 29.9756C52.4361 29.9754 52.4362 29.975 52.4363 29.9747C52.4364 29.9742 52.4365 29.9739 52.4366 29.9736C52.4367 29.9732 52.4366 29.9733 52.4365 29.974C52.4361 29.9753 52.4352 29.9788 52.4337 29.9845C52.4307 29.9958 52.4254 30.0155 52.4177 30.0432C52.4023 30.0985 52.3772 30.1853 52.3417 30.2989C52.2705 30.5266 52.1581 30.8603 51.9981 31.2644C51.6764 32.0772 51.1718 33.1508 50.4409 34.214C48.9795 36.3397 46.7259 38.2872 43.2634 38.2872V41.2872ZM53.891 28.8404H39.7208V31.8404H53.891V28.8404ZM39.7208 28.8404H33.2261V31.8404H39.7208V28.8404ZM38.5002 31.2123C39.0766 32.0193 39.5265 32.649 39.9763 33.2788C40.4261 33.9085 40.8759 34.5382 41.4523 35.3453L43.8935 33.6015C43.3171 32.7945 42.8673 32.1648 42.4175 31.5351C41.9677 30.9053 41.5178 30.2756 40.9414 29.4686L38.5002 31.2123ZM41.4523 35.3453C42.1339 36.2995 43.0794 37.0635 44.2584 36.8498C44.7764 36.7559 45.1403 36.4932 45.3517 36.2964C45.4606 36.195 45.5437 36.0978 45.603 36.0209C45.6331 35.9819 45.6584 35.9464 45.6789 35.9161C45.6893 35.9009 45.6985 35.8868 45.7066 35.874C45.7107 35.8676 45.7146 35.8615 45.7181 35.8558C45.7199 35.8529 45.7216 35.8501 45.7233 35.8474C45.7241 35.846 45.7249 35.8447 45.7257 35.8434C45.7261 35.8427 45.7267 35.8417 45.7269 35.8414C45.7275 35.8404 45.7281 35.8395 44.4442 35.0638C43.1603 34.2882 43.1609 34.2872 43.1615 34.2863C43.1617 34.286 43.1622 34.285 43.1626 34.2844C43.1634 34.2831 43.1641 34.2819 43.1649 34.2807C43.1664 34.2782 43.1679 34.2758 43.1694 34.2734C43.1724 34.2686 43.1753 34.264 43.1782 34.2594C43.1839 34.2504 43.1895 34.2419 43.195 34.2338C43.206 34.2176 43.2168 34.2026 43.2277 34.1884C43.2487 34.1612 43.2746 34.1313 43.3075 34.1007C43.3668 34.0454 43.5041 33.9377 43.7234 33.8979C43.9751 33.8523 44.1539 33.9282 44.2033 33.9576C44.2232 33.9695 44.1112 33.9063 43.8935 33.6015L41.4523 35.3453ZM27.4969 10.441L31.0464 6.89147L28.9251 4.77015L25.3756 8.31966L27.4969 10.441ZM27.4969 8.31966L20.9953 1.81802L18.8739 3.93934L25.3756 10.441L27.4969 8.31966ZM17.8133 0.5H11.3804V3.5H17.8133V0.5ZM23.6591 14.2787L27.4969 10.441L25.3756 8.31966L21.5378 12.1574L23.6591 14.2787ZM10.3197 3.06066L21.5378 14.2787L23.6591 12.1574L12.441 0.93934L10.3197 3.06066ZM4.65372 55C3.68919 55 3.05353 54.1435 3.26872 53.296L0.360985 52.5577C-0.357704 55.3882 1.82356 58 4.65372 58V55ZM24.3517 53.4326C24.3149 54.3204 23.5943 55 22.7699 55V58C25.2666 58 27.2484 55.9872 27.3491 53.5568L24.3517 53.4326ZM32.2078 32.5277C32.3665 32.1174 32.7651 31.8404 33.2261 31.8404V28.8404C31.547 28.8404 30.023 29.8598 29.4097 31.4456L32.2078 32.5277ZM55.4259 28.3228C55.141 28.6515 54.7274 28.8404 54.2923 28.8404V31.8404C55.5975 31.8404 56.8383 31.2738 57.6931 30.2874L55.4259 28.3228ZM123.194 13.7606C123.194 14.5891 122.523 15.2606 121.694 15.2606V18.2606C124.179 18.2606 126.194 16.2459 126.194 13.7606H123.194ZM121.694 8.63298C122.523 8.63298 123.194 9.30455 123.194 10.133H126.194C126.194 7.6477 124.179 5.63298 121.694 5.63298V8.63298ZM118.324 8.8849C118.57 8.72064 118.86 8.63298 119.156 8.63298V5.63298C118.267 5.63298 117.399 5.89595 116.66 6.38875L118.324 8.8849ZM113.797 10.9947C114.685 10.9947 115.553 10.7317 116.293 10.2389L114.629 7.74276C114.382 7.90702 114.093 7.99468 113.797 7.99468V10.9947ZM20.9953 1.81802C20.1513 0.974106 19.0067 0.5 17.8133 0.5V3.5C18.2111 3.5 18.5926 3.65804 18.8739 3.93934L20.9953 1.81802ZM61.2542 9.26201C62.1069 10.3554 63.4161 10.9947 64.8027 10.9947V7.99468C64.3405 7.99468 63.9041 7.7816 63.6198 7.41712L61.2542 9.26201ZM58.3304 6.45213C58.7926 6.45213 59.229 6.66521 59.5133 7.02968L61.8789 5.18479C61.0262 4.09138 59.717 3.45213 58.3304 3.45213V6.45213ZM32.1071 3.45213C30.9136 3.45213 29.769 3.92623 28.9251 4.77015L31.0464 6.89147C31.3277 6.61016 31.7092 6.45213 32.1071 6.45213V3.45213ZM63.527 21.3457C62.2218 21.3457 60.9809 21.9124 60.1262 22.8987L62.3934 24.8634C62.6783 24.5346 63.0919 24.3457 63.527 24.3457V21.3457ZM23.508 14.6435C23.508 14.5067 23.5624 14.3755 23.6591 14.2787L21.5378 12.1574C20.8785 12.8168 20.508 13.711 20.508 14.6435H23.508ZM84.274 19.8457C84.274 20.6742 83.6024 21.3457 82.774 21.3457V24.3457C85.2593 24.3457 87.274 22.331 87.274 19.8457H84.274ZM20.508 19.4303C20.508 19.8904 20.2958 20.3408 19.9176 20.6514L21.8217 22.9697C22.8709 22.108 23.508 20.8172 23.508 19.4303H20.508Z" fill="#BE925C"/>
<mask id="path-2-inside-1" fill="white">
<path d="M31.4559 11.6761C31.4559 10.5716 32.3514 9.67615 33.4559 9.67615H54.2538C55.3584 9.67615 56.2538 10.5716 56.2538 11.6761V17.3517V23.0272C56.2538 24.1318 55.3584 25.0272 54.2538 25.0272H33.4559C32.3514 25.0272 31.4559 24.1318 31.4559 23.0272V11.6761Z"/>
</mask>
<path d="M42.0836 15.8517C41.2552 15.8517 40.5836 16.5233 40.5836 17.3517C40.5836 18.1801 41.2552 18.8517 42.0836 18.8517V15.8517ZM42.0836 18.8517H56.2538V15.8517H42.0836V18.8517ZM33.4559 12.6761H54.2538V6.67615H33.4559V12.6761ZM54.2538 22.0272H33.4559V28.0272H54.2538V22.0272ZM34.4559 23.0272V11.6761H28.4559V23.0272H34.4559ZM53.2538 11.6761V17.3517H59.2538V11.6761H53.2538ZM53.2538 17.3517V23.0272H59.2538V17.3517H53.2538ZM33.4559 22.0272C34.0082 22.0272 34.4559 22.4749 34.4559 23.0272H28.4559C28.4559 25.7886 30.6945 28.0272 33.4559 28.0272V22.0272ZM54.2538 28.0272C57.0152 28.0272 59.2538 25.7886 59.2538 23.0272H53.2538C53.2538 22.4749 53.7015 22.0272 54.2538 22.0272V28.0272ZM54.2538 12.6761C53.7015 12.6761 53.2538 12.2284 53.2538 11.6761H59.2538C59.2538 8.91472 57.0152 6.67615 54.2538 6.67615V12.6761ZM33.4559 6.67615C30.6945 6.67615 28.4559 8.91472 28.4559 11.6761H34.4559C34.4559 12.2284 34.0082 12.6761 33.4559 12.6761V6.67615Z" fill="#BE925C" mask="url(#path-2-inside-1)"/>
</svg>
