<svg viewBox="0 0 75 75" fill="none" xmlns="http://www.w3.org/2000/svg">
<circle cx="47.8774" cy="26.5" r="18.5" stroke="#BE925C" stroke-width="2"/>
<circle cx="47.8774" cy="26.5" r="25" stroke="#BE925C" stroke-width="3"/>
<path d="M25.0343 36.9999L22.2059 39.8283C20.6438 41.3904 20.6438 43.9231 22.2059 45.4852L30.3499 53.6292C31.912 55.1913 34.4447 55.1913 36.0068 53.6292L38.8352 50.8007" stroke="#BE925C" stroke-width="3"/>
<path d="M22.9969 47.3973L6.57561 63.8185C5.79456 64.5996 5.79456 65.8659 6.57561 66.6469L9.40404 69.4754C10.1851 70.2564 11.4514 70.2564 12.2325 69.4754L28.6538 53.0542" stroke="#BE925C" stroke-width="3"/>
<rect width="11.5037" height="17.0542" transform="matrix(0.905294 0.424785 -0.424779 0.905297 62.9279 30.3657)" fill="#030303"/>
<path d="M62.2551 51.0316C62.1878 52.7074 60.8315 54.083 59.1544 54.083H58.4289C56.7933 54.083 55.4697 52.7727 55.4639 51.1371C55.459 49.7614 55.4565 48.4279 55.4565 48.3164C55.4565 46.1367 55.8169 45.3438 56.5376 43.9375C57.2583 42.5312 58.6997 40.9492 60.8618 39.1914C63.0239 37.4336 64.3159 36.2822 64.7378 35.7373C65.3882 34.876 65.7134 33.9268 65.7134 32.8896C65.7134 31.4482 65.1333 30.2178 63.9731 29.1982C62.8306 28.1611 61.356 27.5498 59.4048 27.5498C57.5239 27.5498 55.3444 28.7308 54.9048 30.0498C54.7313 30.5702 54.7384 31.0779 54.8216 31.607C55.1219 33.5165 53.8378 35.0498 51.9048 35.0498C49.9718 35.0498 48.3089 33.481 48.3978 31.5501C48.4726 29.9268 48.7888 28.4096 49.9048 26.5498C51.4049 24.0498 54.9731 22 59.0161 22C63.27 22 66.6538 23.1162 69.1675 25.3486C71.6812 27.5635 72.938 30.1475 72.938 33.1006C72.938 34.7354 72.4722 36.2822 71.5405 37.7412C70.6265 39.2002 68.6577 41.1865 65.6343 43.7002C64.0698 45.001 63.0942 46.0469 62.7075 46.8379C62.4798 47.3259 62.329 49.1936 62.2551 51.0316ZM59.1875 67.0498C57.1415 67.0498 55.4829 65.3912 55.4829 63.3452C55.4829 61.2992 57.1415 59.6406 59.1875 59.6406C61.2335 59.6406 62.8921 61.2992 62.8921 63.3452C62.8921 65.3912 61.2335 67.0498 59.1875 67.0498Z" fill="#030303" stroke="#BE925C" stroke-width="2.5"/>
</svg>
