<svg width="59" height="51" viewBox="0 0 59 51" fill="none" xmlns="http://www.w3.org/2000/svg">
<path fill-rule="evenodd" clip-rule="evenodd" d="M36.25 2H2V49H36.25V37.0646C36.9361 36.9221 37.604 36.7302 38.25 36.4927V49V51H36.25H2H0V49V2V0H2H36.25H38.25V2V9.79419C37.604 9.5567 36.9361 9.36475 36.25 9.22224V2ZM33.4688 8.92547V8.5625H6.375V10.5625H26.7127C28.6925 9.5169 30.9489 8.92493 33.3435 8.92493C33.3853 8.92493 33.427 8.92511 33.4688 8.92547ZM22.7472 13.6625H6.375V15.6625H21.2498C21.6905 14.9517 22.192 14.2826 22.7472 13.6625ZM19.8127 18.7626H6.375V20.7626H19.3235C19.4389 20.0781 19.6032 19.4101 19.8127 18.7626ZM19.1429 23.8625H6.375V25.8625H19.3847C19.2585 25.2107 19.1768 24.5429 19.1429 23.8625ZM20.3665 28.9625H6.375V30.9625H21.4661C21.0485 30.3294 20.6801 29.6609 20.3665 28.9625ZM24.2358 34.0625H6.375V36.0625H27.397C26.2532 35.5351 25.1913 34.8604 24.2358 34.0625ZM31.5562 41.1625H6.375V39.1625H31.5562V41.1625Z" fill="white"/>
<circle r="13.2185" transform="matrix(-1 0 0 1 33.3435 23.1434)" stroke="white" stroke-width="2"/>
<path d="M45.4048 29L45.6115 29.2067C47.1736 30.7688 47.1736 33.3015 45.6115 34.8636L43.8635 36.6116C42.3014 38.1736 39.7688 38.1736 38.2067 36.6116L37.9999 36.4048" stroke="white" stroke-width="2"/>
<path d="M46.6929 34.356L54.8482 42.5113C55.6293 43.2924 55.6293 44.5587 54.8482 45.3397L54.6415 45.5465C53.8604 46.3275 52.5941 46.3275 51.8131 45.5465L43.6577 37.3911" stroke="white" stroke-width="2"/>
</svg>
