<svg viewBox="0 0 21 20" fill="none" xmlns="http://www.w3.org/2000/svg">
<path d="M9.52983 0.913622C9.82918 -0.007689 11.1326 -0.00768733 11.4319 0.913624L13.1015 6.05201C13.2354 6.46404 13.6193 6.74299 14.0526 6.74299H19.4554C20.4241 6.74299 20.8269 7.98261 20.0432 8.55201L15.6722 11.7277C15.3217 11.9824 15.175 12.4337 15.3089 12.8457L16.9785 17.9841C17.2778 18.9054 16.2234 19.6716 15.4396 19.1022L11.0687 15.9265C10.7182 15.6718 10.2436 15.6718 9.8931 15.9265L5.52212 19.1022C4.73841 19.6716 3.68393 18.9054 3.98328 17.9841L5.65285 12.8457C5.78672 12.4337 5.64006 11.9824 5.28958 11.7277L0.9186 8.55201C0.134886 7.98261 0.537664 6.74299 1.50639 6.74299H6.90921C7.34244 6.74299 7.72639 6.46403 7.86027 6.05201L9.52983 0.913622Z" fill="#E3C954"/>
</svg>
