<svg width="22" height="23" viewBox="0 0 22 23" fill="none" xmlns="http://www.w3.org/2000/svg">
<circle cx="11" cy="11.0127" r="11" fill="#BE925C"/>
<path d="M9.92837 16.5601H11.8938V18.7127H9.92837V16.5601ZM6.59998 8.27014C6.59998 6.77981 7.00162 5.58273 7.80491 4.67887C8.60821 3.76812 9.71109 3.31274 11.1136 3.31274C12.4107 3.31274 13.4477 3.70257 14.2247 4.48223C15.0082 5.25499 15.4 6.24509 15.4 7.45253C15.4 8.18389 15.2551 8.77726 14.9654 9.23264C14.6823 9.68801 14.1061 10.3573 13.237 11.2404C12.6049 11.8821 12.1934 12.4272 12.0024 12.8756C11.8181 13.3172 11.7259 13.9727 11.7259 14.842H9.96788C9.96788 13.8554 10.0798 13.0619 10.3037 12.4617C10.5275 11.8545 11.0181 11.1611 11.7753 10.3814L12.5654 9.56382C12.8024 9.32923 12.9934 9.08429 13.1382 8.82901C13.4016 8.38053 13.5333 7.9148 13.5333 7.43183C13.5333 6.75567 13.3391 6.1692 12.9506 5.67242C12.5687 5.17565 11.9333 4.92726 11.0444 4.92726C9.94483 4.92726 9.18434 5.35504 8.76294 6.21059C8.5259 6.68667 8.39092 7.37318 8.358 8.27014H6.59998Z" fill="#030303"/>
</svg>
